<svg width="54" height="37" viewBox="0 0 54 37" fill="none" xmlns="http://www.w3.org/2000/svg">
<g clip-path="url(#clip0_2_2)">
<rect width="54" height="37" fill="white"/>
<rect width="37" height="25" transform="translate(9 1)" fill="black"/>
<rect x="9" y="1" width="37" height="4" fill="#373C46"/>
<rect x="20" y="2" width="23" height="2" rx="1" fill="#CFCECF"/>
<circle cx="11" cy="3" r="1" fill="#FF605C"/>
<circle cx="17" cy="3" r="1" fill="#00CA4E"/>
<circle cx="14" cy="3" r="1" fill="#FFBD44"/>
<rect x="17" y="9" width="20" height="12" rx="1" fill="white"/>
<path d="M25.9091 16.1642L24.4773 14.9104L24 15.3284L25.9091 17L30 13.4179L29.5227 13L25.9091 16.1642Z" fill="#00CA4E"/>
<path d="M3.76198 34.078L2.32798 30.736L3.23998 30.574L4.10398 33.13L5.04598 30.568L5.65198 30.76L4.46398 34L3.76198 34.078ZM8.92611 34.06C8.68211 33.928 8.52411 33.758 8.45211 33.55C8.39611 33.658 8.30811 33.75 8.18811 33.826C8.06811 33.902 7.93011 33.96 7.77411 34C7.62211 34.044 7.46611 34.066 7.30611 34.066C6.97811 34.066 6.71611 33.96 6.52011 33.748C6.32811 33.532 6.22211 33.26 6.20211 32.932L6.08211 30.568L6.93411 30.67V32.794C6.93411 32.998 6.98811 33.152 7.09611 33.256C7.20411 33.36 7.35011 33.412 7.53411 33.412C7.70611 33.412 7.86211 33.366 8.00211 33.274C8.14611 33.182 8.24411 33.048 8.29611 32.872V30.568L9.14811 30.67L9.04611 32.932V32.968C9.04611 33.116 9.08411 33.27 9.16011 33.43C9.24011 33.59 9.35411 33.738 9.50211 33.874L8.92611 34.06ZM12.9182 33.412C12.8022 33.568 12.6782 33.694 12.5462 33.79C12.4182 33.886 12.2702 33.956 12.1022 34C11.9342 34.044 11.7282 34.066 11.4842 34.066C11.1362 34.066 10.8382 33.99 10.5902 33.838C10.3422 33.682 10.1522 33.474 10.0202 33.214C9.88817 32.95 9.82217 32.656 9.82217 32.332C9.82217 32.004 9.89017 31.71 10.0262 31.45C10.1622 31.186 10.3522 30.978 10.5962 30.826C10.8442 30.674 11.1322 30.598 11.4602 30.598C11.7802 30.598 12.0542 30.672 12.2822 30.82C12.5142 30.964 12.6922 31.172 12.8162 31.444C12.9402 31.712 13.0022 32.032 13.0022 32.404V32.506H10.8302L10.6982 32.038L12.1742 31.918C12.1622 31.706 12.1022 31.534 11.9942 31.402C11.8902 31.266 11.7222 31.198 11.4902 31.198C11.2222 31.198 11.0002 31.298 10.8242 31.498C10.6522 31.694 10.5662 31.974 10.5662 32.338C10.5662 32.598 10.6142 32.814 10.7102 32.986C10.8102 33.154 10.9342 33.28 11.0822 33.364C11.2342 33.444 11.3862 33.484 11.5382 33.484C11.7942 33.484 12.0222 33.442 12.2222 33.358C12.4262 33.27 12.5862 33.152 12.7022 33.004L12.9182 33.412ZM14.6 31.834L14.486 31.312C14.538 31.308 14.606 31.304 14.69 31.3C14.774 31.292 14.858 31.284 14.942 31.276C15.026 31.264 15.094 31.252 15.146 31.24C15.394 31.184 15.596 31.098 15.752 30.982C15.908 30.862 15.986 30.7 15.986 30.496C15.986 30.284 15.924 30.116 15.8 29.992C15.68 29.868 15.488 29.806 15.224 29.806C14.956 29.806 14.736 29.86 14.564 29.968C14.392 30.076 14.248 30.218 14.132 30.394L13.7 30.196C13.756 30.024 13.85 29.864 13.982 29.716C14.114 29.564 14.29 29.442 14.51 29.35C14.734 29.254 15.006 29.206 15.326 29.206C15.646 29.206 15.918 29.26 16.142 29.368C16.37 29.472 16.542 29.616 16.658 29.8C16.778 29.98 16.838 30.184 16.838 30.412C16.838 30.644 16.766 30.862 16.622 31.066C16.478 31.27 16.264 31.406 15.98 31.474C16.176 31.498 16.352 31.566 16.508 31.678C16.668 31.79 16.794 31.934 16.886 32.11C16.982 32.286 17.03 32.482 17.03 32.698C17.03 33.134 16.882 33.478 16.586 33.73C16.294 33.982 15.85 34.108 15.254 34.108C14.818 34.108 14.46 34.022 14.18 33.85C13.904 33.674 13.68 33.43 13.508 33.118L13.838 32.758C13.99 33.002 14.192 33.186 14.444 33.31C14.696 33.434 14.962 33.496 15.242 33.496C15.526 33.496 15.754 33.42 15.926 33.268C16.098 33.112 16.184 32.912 16.184 32.668C16.184 32.408 16.098 32.204 15.926 32.056C15.754 31.908 15.526 31.834 15.242 31.834H14.6ZM17.7046 32.716V32.008H19.9366V32.716H17.7046ZM23.5101 34.06C23.2661 33.928 23.1081 33.758 23.0361 33.55C22.9801 33.658 22.8921 33.75 22.7721 33.826C22.6521 33.902 22.5141 33.96 22.3581 34C22.2061 34.044 22.0501 34.066 21.8901 34.066C21.5621 34.066 21.3001 33.96 21.1041 33.748C20.9121 33.532 20.8061 33.26 20.7861 32.932L20.6661 30.568L21.5181 30.67V32.794C21.5181 32.998 21.5721 33.152 21.6801 33.256C21.7881 33.36 21.9341 33.412 22.1181 33.412C22.2901 33.412 22.4461 33.366 22.5861 33.274C22.7301 33.182 22.8281 33.048 22.8801 32.872V30.568L23.7321 30.67L23.6301 32.932V32.968C23.6301 33.116 23.6681 33.27 23.7441 33.43C23.8241 33.59 23.9381 33.738 24.0861 33.874L23.5101 34.06ZM26.9322 31.552C26.8162 31.44 26.6542 31.348 26.4462 31.276C26.2382 31.204 26.0322 31.168 25.8282 31.168C25.6282 31.168 25.4862 31.202 25.4022 31.27C25.3182 31.338 25.2762 31.418 25.2762 31.51C25.2762 31.598 25.3262 31.676 25.4262 31.744C25.5302 31.812 25.7122 31.872 25.9722 31.924C26.4242 32.012 26.7542 32.15 26.9622 32.338C27.1742 32.522 27.2802 32.766 27.2802 33.07C27.2802 33.39 27.1582 33.636 26.9142 33.808C26.6742 33.98 26.3182 34.066 25.8462 34.066C25.6462 34.066 25.4462 34.028 25.2462 33.952C25.0502 33.872 24.8742 33.776 24.7182 33.664C24.5662 33.548 24.4502 33.44 24.3702 33.34L24.6642 32.95C24.7402 33.03 24.8482 33.11 24.9882 33.19C25.1322 33.27 25.2842 33.336 25.4442 33.388C25.6082 33.44 25.7522 33.466 25.8762 33.466C26.0802 33.466 26.2282 33.434 26.3202 33.37C26.4162 33.306 26.4642 33.216 26.4642 33.1C26.4642 32.972 26.3962 32.868 26.2602 32.788C26.1282 32.708 25.9202 32.638 25.6362 32.578C25.2242 32.494 24.9282 32.364 24.7482 32.188C24.5682 32.012 24.4782 31.802 24.4782 31.558C24.4782 31.282 24.5962 31.054 24.8322 30.874C25.0682 30.69 25.4042 30.598 25.8402 30.598C26.0442 30.598 26.2362 30.626 26.4162 30.682C26.6002 30.734 26.7582 30.802 26.8902 30.886C27.0262 30.97 27.1242 31.054 27.1842 31.138L26.9322 31.552ZM30.8479 33.412C30.7319 33.568 30.6079 33.694 30.4759 33.79C30.3479 33.886 30.1999 33.956 30.0319 34C29.8639 34.044 29.6579 34.066 29.4139 34.066C29.0659 34.066 28.7679 33.99 28.5199 33.838C28.2719 33.682 28.0819 33.474 27.9499 33.214C27.8179 32.95 27.7519 32.656 27.7519 32.332C27.7519 32.004 27.8199 31.71 27.9559 31.45C28.0919 31.186 28.2819 30.978 28.5259 30.826C28.7739 30.674 29.0619 30.598 29.3899 30.598C29.7099 30.598 29.9839 30.672 30.2119 30.82C30.4439 30.964 30.6219 31.172 30.7459 31.444C30.8699 31.712 30.9319 32.032 30.9319 32.404V32.506H28.7599L28.6279 32.038L30.1039 31.918C30.0919 31.706 30.0319 31.534 29.9239 31.402C29.8199 31.266 29.6519 31.198 29.4199 31.198C29.1519 31.198 28.9299 31.298 28.7539 31.498C28.5819 31.694 28.4959 31.974 28.4959 32.338C28.4959 32.598 28.5439 32.814 28.6399 32.986C28.7399 33.154 28.8639 33.28 29.0119 33.364C29.1639 33.444 29.3159 33.484 29.4679 33.484C29.7239 33.484 29.9519 33.442 30.1519 33.358C30.3559 33.27 30.5159 33.152 30.6319 33.004L30.8479 33.412ZM31.4917 32.716V32.008H33.7237V32.716H31.4917ZM38.1912 34.078V31.84C38.1912 31.436 38.0292 31.234 37.7052 31.234C37.6052 31.234 37.5172 31.268 37.4412 31.336C37.3652 31.4 37.3052 31.482 37.2612 31.582C37.2212 31.682 37.1972 31.784 37.1892 31.888L37.0692 34L36.3432 34.078V31.84C36.3432 31.64 36.3092 31.49 36.2412 31.39C36.1732 31.286 36.0612 31.234 35.9052 31.234C35.7692 31.234 35.6472 31.278 35.5392 31.366C35.4312 31.454 35.3552 31.568 35.3112 31.708V34L34.5792 34.078L34.4592 30.568L35.3112 30.67V31.054C35.3792 30.91 35.4912 30.798 35.6472 30.718C35.8032 30.638 35.9932 30.598 36.2172 30.598C36.4292 30.598 36.6112 30.646 36.7632 30.742C36.9192 30.834 37.0292 30.96 37.0932 31.12C37.1612 30.96 37.2752 30.834 37.4352 30.742C37.5952 30.646 37.7932 30.598 38.0292 30.598C38.2252 30.598 38.3992 30.64 38.5512 30.724C38.7032 30.808 38.8232 30.926 38.9112 31.078C38.9992 31.23 39.0432 31.41 39.0432 31.618V31.696L38.9232 34L38.1912 34.078ZM41.4148 34.066C41.0668 34.066 40.7648 33.996 40.5088 33.856C40.2568 33.712 40.0608 33.51 39.9208 33.25C39.7808 32.99 39.7108 32.686 39.7108 32.338C39.7108 31.986 39.7808 31.68 39.9208 31.42C40.0608 31.16 40.2568 30.958 40.5088 30.814C40.7648 30.67 41.0668 30.598 41.4148 30.598C41.7668 30.598 42.0688 30.67 42.3208 30.814C42.5768 30.958 42.7728 31.16 42.9088 31.42C43.0448 31.68 43.1128 31.986 43.1128 32.338C43.1128 32.686 43.0448 32.99 42.9088 33.25C42.7728 33.51 42.5768 33.712 42.3208 33.856C42.0688 33.996 41.7668 34.066 41.4148 34.066ZM41.5108 33.514C41.7628 33.494 41.9588 33.388 42.0988 33.196C42.2388 33 42.3088 32.75 42.3088 32.446C42.3088 32.414 42.3088 32.384 42.3088 32.356C42.3088 32.324 42.3068 32.292 42.3028 32.26C42.2748 31.916 42.1788 31.646 42.0148 31.45C41.8548 31.254 41.6508 31.156 41.4028 31.156C41.3868 31.156 41.3728 31.158 41.3608 31.162C41.3488 31.162 41.3348 31.162 41.3188 31.162C41.0748 31.178 40.8788 31.284 40.7308 31.48C40.5868 31.676 40.5148 31.928 40.5148 32.236C40.5148 32.264 40.5148 32.294 40.5148 32.326C40.5148 32.354 40.5168 32.384 40.5208 32.416C40.5488 32.756 40.6468 33.026 40.8148 33.226C40.9828 33.422 41.1888 33.52 41.4328 33.52C41.4448 33.52 41.4568 33.52 41.4688 33.52C41.4848 33.516 41.4988 33.514 41.5108 33.514ZM46.5293 34.06C46.4293 33.98 46.3513 33.904 46.2953 33.832C46.2433 33.756 46.1993 33.666 46.1633 33.562C46.0393 33.75 45.8853 33.882 45.7013 33.958C45.5213 34.03 45.3333 34.066 45.1373 34.066C44.8413 34.066 44.5773 34.002 44.3453 33.874C44.1173 33.742 43.9373 33.548 43.8053 33.292C43.6733 33.032 43.6073 32.714 43.6073 32.338C43.6073 31.958 43.6773 31.64 43.8173 31.384C43.9573 31.124 44.1413 30.928 44.3693 30.796C44.6013 30.664 44.8533 30.598 45.1253 30.598C45.3373 30.598 45.5153 30.626 45.6593 30.682C45.8033 30.738 45.9253 30.836 46.0253 30.976V29.2L46.8773 29.32L46.7573 33.016C46.7533 33.172 46.7813 33.326 46.8413 33.478C46.9053 33.63 46.9933 33.762 47.1053 33.874L46.5293 34.06ZM46.0493 31.666C45.9853 31.538 45.8913 31.426 45.7673 31.33C45.6433 31.23 45.4933 31.18 45.3173 31.18C45.1653 31.18 45.0173 31.218 44.8733 31.294C44.7293 31.366 44.6093 31.488 44.5133 31.66C44.4213 31.828 44.3753 32.056 44.3753 32.344C44.3753 32.628 44.4193 32.854 44.5073 33.022C44.5993 33.186 44.7173 33.304 44.8613 33.376C45.0093 33.448 45.1633 33.484 45.3233 33.484C45.4593 33.484 45.5813 33.45 45.6893 33.382C45.7973 33.31 45.8833 33.214 45.9473 33.094C46.0153 32.974 46.0493 32.844 46.0493 32.704V31.666ZM50.1908 34.06C50.0908 33.98 50.0128 33.904 49.9568 33.832C49.9048 33.756 49.8608 33.666 49.8248 33.562C49.7528 33.686 49.6508 33.786 49.5188 33.862C49.3868 33.934 49.2388 33.986 49.0748 34.018C48.9148 34.05 48.7508 34.066 48.5828 34.066C48.2428 34.066 47.9868 33.988 47.8148 33.832C47.6428 33.676 47.5528 33.458 47.5448 33.178V33.154C47.5448 32.834 47.6468 32.582 47.8508 32.398C48.0548 32.214 48.3388 32.082 48.7028 32.002C48.9508 31.946 49.1588 31.886 49.3268 31.822C49.4988 31.754 49.5848 31.678 49.5848 31.594C49.5848 31.326 49.3748 31.192 48.9548 31.192C48.7428 31.192 48.5368 31.234 48.3368 31.318C48.1368 31.398 47.9728 31.494 47.8448 31.606L47.6048 31.174C47.7448 30.99 47.9368 30.848 48.1808 30.748C48.4288 30.648 48.7088 30.598 49.0208 30.598C49.4848 30.598 49.8328 30.684 50.0648 30.856C50.3008 31.024 50.4188 31.29 50.4188 31.654V33.016C50.4188 33.172 50.4488 33.326 50.5088 33.478C50.5688 33.63 50.6548 33.762 50.7668 33.874L50.1908 34.06ZM48.3728 33.094C48.3768 33.202 48.4088 33.294 48.4688 33.37C48.5288 33.446 48.6188 33.484 48.7388 33.484C48.9148 33.484 49.0868 33.434 49.2548 33.334C49.4228 33.234 49.5388 33.108 49.6028 32.956C49.6228 32.912 49.6348 32.858 49.6388 32.794C49.6468 32.726 49.6508 32.656 49.6508 32.584C49.6508 32.48 49.6468 32.386 49.6388 32.302C49.6308 32.218 49.6268 32.176 49.6268 32.176C49.5388 32.244 49.4248 32.302 49.2848 32.35C49.1488 32.398 49.0048 32.444 48.8528 32.488C48.7048 32.528 48.5868 32.594 48.4988 32.686C48.4148 32.778 48.3728 32.9 48.3728 33.052V33.094ZM51.3822 34.078V29.2L52.2522 29.32L52.1322 34L51.3822 34.078Z" fill="#373C46"/>
</g>
<defs>
<clipPath id="clip0_2_2">
<rect width="54" height="37" fill="white"/>
</clipPath>
</defs>
</svg>
