<svg width="54" height="37" viewBox="0 0 54 37" fill="none" xmlns="http://www.w3.org/2000/svg">
<g clip-path="url(#clip0_2_2)">
<rect width="54" height="37" fill="white"/>
<rect width="37" height="25" transform="translate(9 1)" fill="black"/>
<rect x="9" y="1" width="37" height="4" fill="#373C46"/>
<rect x="20" y="2" width="23" height="2" rx="1" fill="#CFCECF"/>
<circle cx="11" cy="3" r="1" fill="#FF605C"/>
<circle cx="17" cy="3" r="1" fill="#00CA4E"/>
<circle cx="14" cy="3" r="1" fill="#FFBD44"/>
<rect x="17" y="9" width="20" height="12" rx="1" fill="white"/>
<path d="M25.9091 16.1642L24.4773 14.9104L24 15.3284L25.9091 17L30 13.4179L29.5227 13L25.9091 16.1642Z" fill="#00CA4E"/>
<path d="M5.83327 34.078L4.39927 30.736L5.31127 30.574L6.17527 33.13L7.11727 30.568L7.72327 30.76L6.53527 34L5.83327 34.078ZM10.9974 34.06C10.7534 33.928 10.5954 33.758 10.5234 33.55C10.4674 33.658 10.3794 33.75 10.2594 33.826C10.1394 33.902 10.0014 33.96 9.8454 34C9.6934 34.044 9.5374 34.066 9.3774 34.066C9.0494 34.066 8.7874 33.96 8.5914 33.748C8.3994 33.532 8.2934 33.26 8.2734 32.932L8.1534 30.568L9.0054 30.67V32.794C9.0054 32.998 9.0594 33.152 9.1674 33.256C9.2754 33.36 9.4214 33.412 9.6054 33.412C9.7774 33.412 9.9334 33.366 10.0734 33.274C10.2174 33.182 10.3154 33.048 10.3674 32.872V30.568L11.2194 30.67L11.1174 32.932V32.968C11.1174 33.116 11.1554 33.27 11.2314 33.43C11.3114 33.59 11.4254 33.738 11.5734 33.874L10.9974 34.06ZM14.9895 33.412C14.8735 33.568 14.7495 33.694 14.6175 33.79C14.4895 33.886 14.3415 33.956 14.1735 34C14.0055 34.044 13.7995 34.066 13.5555 34.066C13.2075 34.066 12.9095 33.99 12.6615 33.838C12.4135 33.682 12.2235 33.474 12.0915 33.214C11.9595 32.95 11.8935 32.656 11.8935 32.332C11.8935 32.004 11.9615 31.71 12.0975 31.45C12.2335 31.186 12.4235 30.978 12.6675 30.826C12.9155 30.674 13.2035 30.598 13.5315 30.598C13.8515 30.598 14.1255 30.672 14.3535 30.82C14.5855 30.964 14.7635 31.172 14.8875 31.444C15.0115 31.712 15.0735 32.032 15.0735 32.404V32.506H12.9015L12.7695 32.038L14.2455 31.918C14.2335 31.706 14.1735 31.534 14.0655 31.402C13.9615 31.266 13.7935 31.198 13.5615 31.198C13.2935 31.198 13.0715 31.298 12.8955 31.498C12.7235 31.694 12.6375 31.974 12.6375 32.338C12.6375 32.598 12.6855 32.814 12.7815 32.986C12.8815 33.154 13.0055 33.28 13.1535 33.364C13.3055 33.444 13.4575 33.484 13.6095 33.484C13.8655 33.484 14.0935 33.442 14.2935 33.358C14.4975 33.27 14.6575 33.152 14.7735 33.004L14.9895 33.412ZM15.6333 32.716V32.008H17.8653V32.716H15.6333ZM21.4388 34.06C21.1948 33.928 21.0368 33.758 20.9648 33.55C20.9088 33.658 20.8208 33.75 20.7008 33.826C20.5808 33.902 20.4428 33.96 20.2868 34C20.1348 34.044 19.9788 34.066 19.8188 34.066C19.4908 34.066 19.2288 33.96 19.0328 33.748C18.8408 33.532 18.7348 33.26 18.7148 32.932L18.5948 30.568L19.4468 30.67V32.794C19.4468 32.998 19.5008 33.152 19.6088 33.256C19.7168 33.36 19.8628 33.412 20.0468 33.412C20.2188 33.412 20.3748 33.366 20.5148 33.274C20.6588 33.182 20.7568 33.048 20.8088 32.872V30.568L21.6608 30.67L21.5588 32.932V32.968C21.5588 33.116 21.5968 33.27 21.6728 33.43C21.7528 33.59 21.8668 33.738 22.0148 33.874L21.4388 34.06ZM24.8609 31.552C24.7449 31.44 24.5829 31.348 24.3749 31.276C24.1669 31.204 23.9609 31.168 23.7569 31.168C23.5569 31.168 23.4149 31.202 23.3309 31.27C23.2469 31.338 23.2049 31.418 23.2049 31.51C23.2049 31.598 23.2549 31.676 23.3549 31.744C23.4589 31.812 23.6409 31.872 23.9009 31.924C24.3529 32.012 24.6829 32.15 24.8909 32.338C25.1029 32.522 25.2089 32.766 25.2089 33.07C25.2089 33.39 25.0869 33.636 24.8429 33.808C24.6029 33.98 24.2469 34.066 23.7749 34.066C23.5749 34.066 23.3749 34.028 23.1749 33.952C22.9789 33.872 22.8029 33.776 22.6469 33.664C22.4949 33.548 22.3789 33.44 22.2989 33.34L22.5929 32.95C22.6689 33.03 22.7769 33.11 22.9169 33.19C23.0609 33.27 23.2129 33.336 23.3729 33.388C23.5369 33.44 23.6809 33.466 23.8049 33.466C24.0089 33.466 24.1569 33.434 24.2489 33.37C24.3449 33.306 24.3929 33.216 24.3929 33.1C24.3929 32.972 24.3249 32.868 24.1889 32.788C24.0569 32.708 23.8489 32.638 23.5649 32.578C23.1529 32.494 22.8569 32.364 22.6769 32.188C22.4969 32.012 22.4069 31.802 22.4069 31.558C22.4069 31.282 22.5249 31.054 22.7609 30.874C22.9969 30.69 23.3329 30.598 23.7689 30.598C23.9729 30.598 24.1649 30.626 24.3449 30.682C24.5289 30.734 24.6869 30.802 24.8189 30.886C24.9549 30.97 25.0529 31.054 25.1129 31.138L24.8609 31.552ZM28.7766 33.412C28.6606 33.568 28.5366 33.694 28.4046 33.79C28.2766 33.886 28.1286 33.956 27.9606 34C27.7926 34.044 27.5866 34.066 27.3426 34.066C26.9946 34.066 26.6966 33.99 26.4486 33.838C26.2006 33.682 26.0106 33.474 25.8786 33.214C25.7466 32.95 25.6806 32.656 25.6806 32.332C25.6806 32.004 25.7486 31.71 25.8846 31.45C26.0206 31.186 26.2106 30.978 26.4546 30.826C26.7026 30.674 26.9906 30.598 27.3186 30.598C27.6386 30.598 27.9126 30.672 28.1406 30.82C28.3726 30.964 28.5506 31.172 28.6746 31.444C28.7986 31.712 28.8606 32.032 28.8606 32.404V32.506H26.6886L26.5566 32.038L28.0326 31.918C28.0206 31.706 27.9606 31.534 27.8526 31.402C27.7486 31.266 27.5806 31.198 27.3486 31.198C27.0806 31.198 26.8586 31.298 26.6826 31.498C26.5106 31.694 26.4246 31.974 26.4246 32.338C26.4246 32.598 26.4726 32.814 26.5686 32.986C26.6686 33.154 26.7926 33.28 26.9406 33.364C27.0926 33.444 27.2446 33.484 27.3966 33.484C27.6526 33.484 27.8806 33.442 28.0806 33.358C28.2846 33.27 28.4446 33.152 28.5606 33.004L28.7766 33.412ZM29.4204 32.716V32.008H31.6524V32.716H29.4204ZM36.1199 34.078V31.84C36.1199 31.436 35.9579 31.234 35.6339 31.234C35.5339 31.234 35.4459 31.268 35.3699 31.336C35.2939 31.4 35.2339 31.482 35.1899 31.582C35.1499 31.682 35.1259 31.784 35.1179 31.888L34.9979 34L34.2719 34.078V31.84C34.2719 31.64 34.2379 31.49 34.1699 31.39C34.1019 31.286 33.9899 31.234 33.8339 31.234C33.6979 31.234 33.5759 31.278 33.4679 31.366C33.3599 31.454 33.2839 31.568 33.2399 31.708V34L32.5079 34.078L32.3879 30.568L33.2399 30.67V31.054C33.3079 30.91 33.4199 30.798 33.5759 30.718C33.7319 30.638 33.9219 30.598 34.1459 30.598C34.3579 30.598 34.5399 30.646 34.6919 30.742C34.8479 30.834 34.9579 30.96 35.0219 31.12C35.0899 30.96 35.2039 30.834 35.3639 30.742C35.5239 30.646 35.7219 30.598 35.9579 30.598C36.1539 30.598 36.3279 30.64 36.4799 30.724C36.6319 30.808 36.7519 30.926 36.8399 31.078C36.9279 31.23 36.9719 31.41 36.9719 31.618V31.696L36.8519 34L36.1199 34.078ZM39.3436 34.066C38.9956 34.066 38.6936 33.996 38.4376 33.856C38.1856 33.712 37.9896 33.51 37.8496 33.25C37.7096 32.99 37.6396 32.686 37.6396 32.338C37.6396 31.986 37.7096 31.68 37.8496 31.42C37.9896 31.16 38.1856 30.958 38.4376 30.814C38.6936 30.67 38.9956 30.598 39.3436 30.598C39.6956 30.598 39.9976 30.67 40.2496 30.814C40.5056 30.958 40.7016 31.16 40.8376 31.42C40.9736 31.68 41.0416 31.986 41.0416 32.338C41.0416 32.686 40.9736 32.99 40.8376 33.25C40.7016 33.51 40.5056 33.712 40.2496 33.856C39.9976 33.996 39.6956 34.066 39.3436 34.066ZM39.4396 33.514C39.6916 33.494 39.8876 33.388 40.0276 33.196C40.1676 33 40.2376 32.75 40.2376 32.446C40.2376 32.414 40.2376 32.384 40.2376 32.356C40.2376 32.324 40.2356 32.292 40.2316 32.26C40.2036 31.916 40.1076 31.646 39.9436 31.45C39.7836 31.254 39.5796 31.156 39.3316 31.156C39.3156 31.156 39.3016 31.158 39.2896 31.162C39.2776 31.162 39.2636 31.162 39.2476 31.162C39.0036 31.178 38.8076 31.284 38.6596 31.48C38.5156 31.676 38.4436 31.928 38.4436 32.236C38.4436 32.264 38.4436 32.294 38.4436 32.326C38.4436 32.354 38.4456 32.384 38.4496 32.416C38.4776 32.756 38.5756 33.026 38.7436 33.226C38.9116 33.422 39.1176 33.52 39.3616 33.52C39.3736 33.52 39.3856 33.52 39.3976 33.52C39.4136 33.516 39.4276 33.514 39.4396 33.514ZM44.458 34.06C44.358 33.98 44.28 33.904 44.224 33.832C44.172 33.756 44.128 33.666 44.092 33.562C43.968 33.75 43.814 33.882 43.63 33.958C43.45 34.03 43.262 34.066 43.066 34.066C42.77 34.066 42.506 34.002 42.274 33.874C42.046 33.742 41.866 33.548 41.734 33.292C41.602 33.032 41.536 32.714 41.536 32.338C41.536 31.958 41.606 31.64 41.746 31.384C41.886 31.124 42.07 30.928 42.298 30.796C42.53 30.664 42.782 30.598 43.054 30.598C43.266 30.598 43.444 30.626 43.588 30.682C43.732 30.738 43.854 30.836 43.954 30.976V29.2L44.806 29.32L44.686 33.016C44.682 33.172 44.71 33.326 44.77 33.478C44.834 33.63 44.922 33.762 45.034 33.874L44.458 34.06ZM43.978 31.666C43.914 31.538 43.82 31.426 43.696 31.33C43.572 31.23 43.422 31.18 43.246 31.18C43.094 31.18 42.946 31.218 42.802 31.294C42.658 31.366 42.538 31.488 42.442 31.66C42.35 31.828 42.304 32.056 42.304 32.344C42.304 32.628 42.348 32.854 42.436 33.022C42.528 33.186 42.646 33.304 42.79 33.376C42.938 33.448 43.092 33.484 43.252 33.484C43.388 33.484 43.51 33.45 43.618 33.382C43.726 33.31 43.812 33.214 43.876 33.094C43.944 32.974 43.978 32.844 43.978 32.704V31.666ZM48.1195 34.06C48.0195 33.98 47.9415 33.904 47.8855 33.832C47.8335 33.756 47.7895 33.666 47.7535 33.562C47.6815 33.686 47.5795 33.786 47.4475 33.862C47.3155 33.934 47.1675 33.986 47.0035 34.018C46.8435 34.05 46.6795 34.066 46.5115 34.066C46.1715 34.066 45.9155 33.988 45.7435 33.832C45.5715 33.676 45.4815 33.458 45.4735 33.178V33.154C45.4735 32.834 45.5755 32.582 45.7795 32.398C45.9835 32.214 46.2675 32.082 46.6315 32.002C46.8795 31.946 47.0875 31.886 47.2555 31.822C47.4275 31.754 47.5135 31.678 47.5135 31.594C47.5135 31.326 47.3035 31.192 46.8835 31.192C46.6715 31.192 46.4655 31.234 46.2655 31.318C46.0655 31.398 45.9015 31.494 45.7735 31.606L45.5335 31.174C45.6735 30.99 45.8655 30.848 46.1095 30.748C46.3575 30.648 46.6375 30.598 46.9495 30.598C47.4135 30.598 47.7615 30.684 47.9935 30.856C48.2295 31.024 48.3475 31.29 48.3475 31.654V33.016C48.3475 33.172 48.3775 33.326 48.4375 33.478C48.4975 33.63 48.5835 33.762 48.6955 33.874L48.1195 34.06ZM46.3015 33.094C46.3055 33.202 46.3375 33.294 46.3975 33.37C46.4575 33.446 46.5475 33.484 46.6675 33.484C46.8435 33.484 47.0155 33.434 47.1835 33.334C47.3515 33.234 47.4675 33.108 47.5315 32.956C47.5515 32.912 47.5635 32.858 47.5675 32.794C47.5755 32.726 47.5795 32.656 47.5795 32.584C47.5795 32.48 47.5755 32.386 47.5675 32.302C47.5595 32.218 47.5555 32.176 47.5555 32.176C47.4675 32.244 47.3535 32.302 47.2135 32.35C47.0775 32.398 46.9335 32.444 46.7815 32.488C46.6335 32.528 46.5155 32.594 46.4275 32.686C46.3435 32.778 46.3015 32.9 46.3015 33.052V33.094ZM49.3109 34.078V29.2L50.1809 29.32L50.0609 34L49.3109 34.078Z" fill="#373C46"/>
</g>
<defs>
<clipPath id="clip0_2_2">
<rect width="54" height="37" fill="white"/>
</clipPath>
</defs>
</svg>
