<svg width="60" height="43" viewBox="0 0 60 43" fill="none" xmlns="http://www.w3.org/2000/svg">
<rect width="60" height="43" fill="white"/>
<rect width="37" height="25" transform="translate(12 4)" fill="black"/>
<rect x="12" y="4" width="37" height="4" fill="#373C46"/>
<rect x="23" y="5" width="23" height="2" rx="1" fill="#CFCECF"/>
<circle cx="14" cy="6" r="1" fill="#FF605C"/>
<circle cx="20" cy="6" r="1" fill="#00CA4E"/>
<circle cx="17" cy="6" r="1" fill="#FFBD44"/>
<rect x="20" y="12" width="20" height="12" rx="1" fill="white"/>
<path d="M28.9091 19.1642L27.4773 17.9104L27 18.3284L28.9091 20L33 16.4179L32.5227 16L28.9091 19.1642Z" fill="#00CA4E"/>
<path d="M8.4234 40.1C8.01673 39.88 7.7534 39.5967 7.6334 39.25C7.54007 39.43 7.3934 39.5833 7.1934 39.71C6.9934 39.8367 6.7634 39.9333 6.5034 40C6.25007 40.0733 5.99007 40.11 5.7234 40.11C5.17673 40.11 4.74007 39.9333 4.4134 39.58C4.0934 39.22 3.91673 38.7667 3.8834 38.22L3.6834 34.28L5.1034 34.45V37.99C5.1034 38.33 5.1934 38.5867 5.3734 38.76C5.5534 38.9333 5.79673 39.02 6.1034 39.02C6.39007 39.02 6.65007 38.9433 6.8834 38.79C7.1234 38.6367 7.28673 38.4133 7.3734 38.12V34.28L8.7934 34.45L8.6234 38.22V38.28C8.6234 38.5267 8.68673 38.7833 8.8134 39.05C8.94673 39.3167 9.13673 39.5633 9.3834 39.79L8.4234 40.1ZM14.1268 35.92C13.9335 35.7333 13.6635 35.58 13.3168 35.46C12.9702 35.34 12.6268 35.28 12.2868 35.28C11.9535 35.28 11.7168 35.3367 11.5768 35.45C11.4368 35.5633 11.3668 35.6967 11.3668 35.85C11.3668 35.9967 11.4502 36.1267 11.6168 36.24C11.7902 36.3533 12.0935 36.4533 12.5268 36.54C13.2802 36.6867 13.8302 36.9167 14.1768 37.23C14.5302 37.5367 14.7068 37.9433 14.7068 38.45C14.7068 38.9833 14.5035 39.3933 14.0968 39.68C13.6968 39.9667 13.1035 40.11 12.3168 40.11C11.9835 40.11 11.6502 40.0467 11.3168 39.92C10.9902 39.7867 10.6968 39.6267 10.4368 39.44C10.1835 39.2467 9.99017 39.0667 9.85684 38.9L10.3468 38.25C10.4735 38.3833 10.6535 38.5167 10.8868 38.65C11.1268 38.7833 11.3802 38.8933 11.6468 38.98C11.9202 39.0667 12.1602 39.11 12.3668 39.11C12.7068 39.11 12.9535 39.0567 13.1068 38.95C13.2668 38.8433 13.3468 38.6933 13.3468 38.5C13.3468 38.2867 13.2335 38.1133 13.0068 37.98C12.7868 37.8467 12.4402 37.73 11.9668 37.63C11.2802 37.49 10.7868 37.2733 10.4868 36.98C10.1868 36.6867 10.0368 36.3367 10.0368 35.93C10.0368 35.47 10.2335 35.09 10.6268 34.79C11.0202 34.4833 11.5802 34.33 12.3068 34.33C12.6468 34.33 12.9668 34.3767 13.2668 34.47C13.5735 34.5567 13.8368 34.67 14.0568 34.81C14.2835 34.95 14.4468 35.09 14.5468 35.23L14.1268 35.92ZM20.653 39.02C20.4597 39.28 20.253 39.49 20.033 39.65C19.8197 39.81 19.573 39.9267 19.293 40C19.013 40.0733 18.6697 40.11 18.263 40.11C17.683 40.11 17.1863 39.9833 16.773 39.73C16.3597 39.47 16.043 39.1233 15.823 38.69C15.603 38.25 15.493 37.76 15.493 37.22C15.493 36.6733 15.6063 36.1833 15.833 35.75C16.0597 35.31 16.3763 34.9633 16.783 34.71C17.1963 34.4567 17.6763 34.33 18.223 34.33C18.7563 34.33 19.213 34.4533 19.593 34.7C19.9797 34.94 20.2763 35.2867 20.483 35.74C20.6897 36.1867 20.793 36.72 20.793 37.34V37.51H17.173L16.953 36.73L19.413 36.53C19.393 36.1767 19.293 35.89 19.113 35.67C18.9397 35.4433 18.6597 35.33 18.273 35.33C17.8263 35.33 17.4563 35.4967 17.163 35.83C16.8763 36.1567 16.733 36.6233 16.733 37.23C16.733 37.6633 16.813 38.0233 16.973 38.31C17.1397 38.59 17.3463 38.8 17.593 38.94C17.8463 39.0733 18.0997 39.14 18.353 39.14C18.7797 39.14 19.1597 39.07 19.493 38.93C19.833 38.7833 20.0997 38.5867 20.293 38.34L20.653 39.02ZM21.7261 37.86V36.68H25.4461V37.86H21.7261ZM32.8919 40.13V36.4C32.8919 35.7267 32.6219 35.39 32.0819 35.39C31.9152 35.39 31.7686 35.4467 31.6419 35.56C31.5152 35.6667 31.4152 35.8033 31.3419 35.97C31.2752 36.1367 31.2352 36.3067 31.2219 36.48L31.0219 40L29.8119 40.13V36.4C29.8119 36.0667 29.7552 35.8167 29.6419 35.65C29.5286 35.4767 29.3419 35.39 29.0819 35.39C28.8552 35.39 28.6519 35.4633 28.4719 35.61C28.2919 35.7567 28.1652 35.9467 28.0919 36.18V40L26.8719 40.13L26.6719 34.28L28.0919 34.45V35.09C28.2052 34.85 28.3919 34.6633 28.6519 34.53C28.9119 34.3967 29.2286 34.33 29.6019 34.33C29.9552 34.33 30.2586 34.41 30.5119 34.57C30.7719 34.7233 30.9552 34.9333 31.0619 35.2C31.1752 34.9333 31.3652 34.7233 31.6319 34.57C31.8986 34.41 32.2286 34.33 32.6219 34.33C32.9486 34.33 33.2386 34.4 33.4919 34.54C33.7452 34.68 33.9452 34.8767 34.0919 35.13C34.2386 35.3833 34.3119 35.6833 34.3119 36.03V36.16L34.1119 40L32.8919 40.13ZM38.2646 40.11C37.6846 40.11 37.1813 39.9933 36.7546 39.76C36.3346 39.52 36.008 39.1833 35.7746 38.75C35.5413 38.3167 35.4246 37.81 35.4246 37.23C35.4246 36.6433 35.5413 36.1333 35.7746 35.7C36.008 35.2667 36.3346 34.93 36.7546 34.69C37.1813 34.45 37.6846 34.33 38.2646 34.33C38.8513 34.33 39.3546 34.45 39.7746 34.69C40.2013 34.93 40.528 35.2667 40.7546 35.7C40.9813 36.1333 41.0946 36.6433 41.0946 37.23C41.0946 37.81 40.9813 38.3167 40.7546 38.75C40.528 39.1833 40.2013 39.52 39.7746 39.76C39.3546 39.9933 38.8513 40.11 38.2646 40.11ZM38.4246 39.19C38.8446 39.1567 39.1713 38.98 39.4046 38.66C39.638 38.3333 39.7546 37.9167 39.7546 37.41C39.7546 37.3567 39.7546 37.3067 39.7546 37.26C39.7546 37.2067 39.7513 37.1533 39.7446 37.1C39.698 36.5267 39.538 36.0767 39.2646 35.75C38.998 35.4233 38.658 35.26 38.2446 35.26C38.218 35.26 38.1946 35.2633 38.1746 35.27C38.1546 35.27 38.1313 35.27 38.1046 35.27C37.698 35.2967 37.3713 35.4733 37.1246 35.8C36.8846 36.1267 36.7646 36.5467 36.7646 37.06C36.7646 37.1067 36.7646 37.1567 36.7646 37.21C36.7646 37.2567 36.768 37.3067 36.7746 37.36C36.8213 37.9267 36.9846 38.3767 37.2646 38.71C37.5446 39.0367 37.888 39.2 38.2946 39.2C38.3146 39.2 38.3346 39.2 38.3546 39.2C38.3813 39.1933 38.4046 39.19 38.4246 39.19ZM46.7888 40.1C46.6221 39.9667 46.4921 39.84 46.3988 39.72C46.3121 39.5933 46.2388 39.4433 46.1788 39.27C45.9721 39.5833 45.7155 39.8033 45.4088 39.93C45.1088 40.05 44.7955 40.11 44.4688 40.11C43.9755 40.11 43.5355 40.0033 43.1488 39.79C42.7688 39.57 42.4688 39.2467 42.2488 38.82C42.0288 38.3867 41.9188 37.8567 41.9188 37.23C41.9188 36.5967 42.0355 36.0667 42.2688 35.64C42.5021 35.2067 42.8088 34.88 43.1888 34.66C43.5755 34.44 43.9955 34.33 44.4488 34.33C44.8021 34.33 45.0988 34.3767 45.3388 34.47C45.5788 34.5633 45.7821 34.7267 45.9488 34.96V32L47.3688 32.2L47.1688 38.36C47.1621 38.62 47.2088 38.8767 47.3088 39.13C47.4155 39.3833 47.5621 39.6033 47.7488 39.79L46.7888 40.1ZM45.9888 36.11C45.8821 35.8967 45.7255 35.71 45.5188 35.55C45.3121 35.3833 45.0621 35.3 44.7688 35.3C44.5155 35.3 44.2688 35.3633 44.0288 35.49C43.7888 35.61 43.5888 35.8133 43.4288 36.1C43.2755 36.38 43.1988 36.76 43.1988 37.24C43.1988 37.7133 43.2721 38.09 43.4188 38.37C43.5721 38.6433 43.7688 38.84 44.0088 38.96C44.2555 39.08 44.5121 39.14 44.7788 39.14C45.0055 39.14 45.2088 39.0833 45.3888 38.97C45.5688 38.85 45.7121 38.69 45.8188 38.49C45.9321 38.29 45.9888 38.0733 45.9888 37.84V36.11ZM52.8913 40.1C52.7246 39.9667 52.5946 39.84 52.5013 39.72C52.4146 39.5933 52.3413 39.4433 52.2813 39.27C52.1613 39.4767 51.9913 39.6433 51.7713 39.77C51.5513 39.89 51.3046 39.9767 51.0313 40.03C50.7646 40.0833 50.4913 40.11 50.2113 40.11C49.6446 40.11 49.218 39.98 48.9313 39.72C48.6446 39.46 48.4946 39.0967 48.4813 38.63V38.59C48.4813 38.0567 48.6513 37.6367 48.9913 37.33C49.3313 37.0233 49.8046 36.8033 50.4113 36.67C50.8246 36.5767 51.1713 36.4767 51.4513 36.37C51.738 36.2567 51.8813 36.13 51.8813 35.99C51.8813 35.5433 51.5313 35.32 50.8313 35.32C50.478 35.32 50.1346 35.39 49.8013 35.53C49.468 35.6633 49.1946 35.8233 48.9813 36.01L48.5813 35.29C48.8146 34.9833 49.1346 34.7467 49.5413 34.58C49.9546 34.4133 50.4213 34.33 50.9413 34.33C51.7146 34.33 52.2946 34.4733 52.6813 34.76C53.0746 35.04 53.2713 35.4833 53.2713 36.09V38.36C53.2713 38.62 53.3213 38.8767 53.4213 39.13C53.5213 39.3833 53.6646 39.6033 53.8513 39.79L52.8913 40.1ZM49.8613 38.49C49.868 38.67 49.9213 38.8233 50.0213 38.95C50.1213 39.0767 50.2713 39.14 50.4713 39.14C50.7646 39.14 51.0513 39.0567 51.3313 38.89C51.6113 38.7233 51.8046 38.5133 51.9113 38.26C51.9446 38.1867 51.9646 38.0967 51.9713 37.99C51.9846 37.8767 51.9913 37.76 51.9913 37.64C51.9913 37.4667 51.9846 37.31 51.9713 37.17C51.958 37.03 51.9513 36.96 51.9513 36.96C51.8046 37.0733 51.6146 37.17 51.3813 37.25C51.1546 37.33 50.9146 37.4067 50.6613 37.48C50.4146 37.5467 50.218 37.6567 50.0713 37.81C49.9313 37.9633 49.8613 38.1667 49.8613 38.42V38.49ZM54.8769 40.13V32L56.3269 32.2L56.1269 40L54.8769 40.13Z" fill="#373C46"/>
</svg>
