<svg width="55" height="38" viewBox="0 0 55 38" fill="none" xmlns="http://www.w3.org/2000/svg">
<rect width="55" height="38" fill="white"/>
<rect width="37" height="25" transform="translate(9 1)" fill="black"/>
<rect x="9" y="1" width="37" height="4" fill="#373C46"/>
<rect x="20" y="2" width="23" height="2" rx="1" fill="#CFCECF"/>
<circle cx="11" cy="3" r="1" fill="#FF605C"/>
<circle cx="17" cy="3" r="1" fill="#00CA4E"/>
<circle cx="14" cy="3" r="1" fill="#FFBD44"/>
<rect x="17" y="9" width="20" height="12" rx="1" fill="white"/>
<path d="M25.9091 16.1642L24.4773 14.9104L24 15.3284L25.9091 17L30 13.4179L29.5227 13L25.9091 16.1642Z" fill="#00CA4E"/>
<path d="M5.9234 36.1C5.51673 35.88 5.2534 35.5967 5.1334 35.25C5.04007 35.43 4.8934 35.5833 4.6934 35.71C4.4934 35.8367 4.2634 35.9333 4.0034 36C3.75007 36.0733 3.49007 36.11 3.2234 36.11C2.67673 36.11 2.24007 35.9333 1.9134 35.58C1.5934 35.22 1.41673 34.7667 1.3834 34.22L1.1834 30.28L2.6034 30.45V33.99C2.6034 34.33 2.6934 34.5867 2.8734 34.76C3.0534 34.9333 3.29673 35.02 3.6034 35.02C3.89007 35.02 4.15007 34.9433 4.3834 34.79C4.6234 34.6367 4.78673 34.4133 4.8734 34.12V30.28L6.2934 30.45L6.1234 34.22V34.28C6.1234 34.5267 6.18673 34.7833 6.3134 35.05C6.44673 35.3167 6.63673 35.5633 6.8834 35.79L5.9234 36.1ZM11.6268 31.92C11.4335 31.7333 11.1635 31.58 10.8168 31.46C10.4702 31.34 10.1268 31.28 9.78684 31.28C9.4535 31.28 9.21684 31.3367 9.07684 31.45C8.93684 31.5633 8.86684 31.6967 8.86684 31.85C8.86684 31.9967 8.95017 32.1267 9.11684 32.24C9.29017 32.3533 9.5935 32.4533 10.0268 32.54C10.7802 32.6867 11.3302 32.9167 11.6768 33.23C12.0302 33.5367 12.2068 33.9433 12.2068 34.45C12.2068 34.9833 12.0035 35.3933 11.5968 35.68C11.1968 35.9667 10.6035 36.11 9.81684 36.11C9.4835 36.11 9.15017 36.0467 8.81684 35.92C8.49017 35.7867 8.19684 35.6267 7.93684 35.44C7.6835 35.2467 7.49017 35.0667 7.35684 34.9L7.84684 34.25C7.9735 34.3833 8.1535 34.5167 8.38684 34.65C8.62684 34.7833 8.88017 34.8933 9.14684 34.98C9.42017 35.0667 9.66017 35.11 9.86684 35.11C10.2068 35.11 10.4535 35.0567 10.6068 34.95C10.7668 34.8433 10.8468 34.6933 10.8468 34.5C10.8468 34.2867 10.7335 34.1133 10.5068 33.98C10.2868 33.8467 9.94017 33.73 9.46684 33.63C8.78017 33.49 8.28684 33.2733 7.98684 32.98C7.68684 32.6867 7.53684 32.3367 7.53684 31.93C7.53684 31.47 7.7335 31.09 8.12684 30.79C8.52017 30.4833 9.08017 30.33 9.80684 30.33C10.1468 30.33 10.4668 30.3767 10.7668 30.47C11.0735 30.5567 11.3368 30.67 11.5568 30.81C11.7835 30.95 11.9468 31.09 12.0468 31.23L11.6268 31.92ZM18.153 35.02C17.9597 35.28 17.753 35.49 17.533 35.65C17.3197 35.81 17.073 35.9267 16.793 36C16.513 36.0733 16.1697 36.11 15.763 36.11C15.183 36.11 14.6863 35.9833 14.273 35.73C13.8597 35.47 13.543 35.1233 13.323 34.69C13.103 34.25 12.993 33.76 12.993 33.22C12.993 32.6733 13.1063 32.1833 13.333 31.75C13.5597 31.31 13.8763 30.9633 14.283 30.71C14.6963 30.4567 15.1763 30.33 15.723 30.33C16.2563 30.33 16.713 30.4533 17.093 30.7C17.4797 30.94 17.7763 31.2867 17.983 31.74C18.1897 32.1867 18.293 32.72 18.293 33.34V33.51H14.673L14.453 32.73L16.913 32.53C16.893 32.1767 16.793 31.89 16.613 31.67C16.4397 31.4433 16.1597 31.33 15.773 31.33C15.3263 31.33 14.9563 31.4967 14.663 31.83C14.3763 32.1567 14.233 32.6233 14.233 33.23C14.233 33.6633 14.313 34.0233 14.473 34.31C14.6397 34.59 14.8463 34.8 15.093 34.94C15.3463 35.0733 15.5997 35.14 15.853 35.14C16.2797 35.14 16.6597 35.07 16.993 34.93C17.333 34.7833 17.5997 34.5867 17.793 34.34L18.153 35.02ZM19.2261 33.86V32.68H22.9461V33.86H19.2261ZM30.3919 36.13V32.4C30.3919 31.7267 30.1219 31.39 29.5819 31.39C29.4152 31.39 29.2686 31.4467 29.1419 31.56C29.0152 31.6667 28.9152 31.8033 28.8419 31.97C28.7752 32.1367 28.7352 32.3067 28.7219 32.48L28.5219 36L27.3119 36.13V32.4C27.3119 32.0667 27.2552 31.8167 27.1419 31.65C27.0286 31.4767 26.8419 31.39 26.5819 31.39C26.3552 31.39 26.1519 31.4633 25.9719 31.61C25.7919 31.7567 25.6652 31.9467 25.5919 32.18V36L24.3719 36.13L24.1719 30.28L25.5919 30.45V31.09C25.7052 30.85 25.8919 30.6633 26.1519 30.53C26.4119 30.3967 26.7286 30.33 27.1019 30.33C27.4552 30.33 27.7586 30.41 28.0119 30.57C28.2719 30.7233 28.4552 30.9333 28.5619 31.2C28.6752 30.9333 28.8652 30.7233 29.1319 30.57C29.3986 30.41 29.7286 30.33 30.1219 30.33C30.4486 30.33 30.7386 30.4 30.9919 30.54C31.2452 30.68 31.4452 30.8767 31.5919 31.13C31.7386 31.3833 31.8119 31.6833 31.8119 32.03V32.16L31.6119 36L30.3919 36.13ZM35.7646 36.11C35.1846 36.11 34.6813 35.9933 34.2546 35.76C33.8346 35.52 33.508 35.1833 33.2746 34.75C33.0413 34.3167 32.9246 33.81 32.9246 33.23C32.9246 32.6433 33.0413 32.1333 33.2746 31.7C33.508 31.2667 33.8346 30.93 34.2546 30.69C34.6813 30.45 35.1846 30.33 35.7646 30.33C36.3513 30.33 36.8546 30.45 37.2746 30.69C37.7013 30.93 38.028 31.2667 38.2546 31.7C38.4813 32.1333 38.5946 32.6433 38.5946 33.23C38.5946 33.81 38.4813 34.3167 38.2546 34.75C38.028 35.1833 37.7013 35.52 37.2746 35.76C36.8546 35.9933 36.3513 36.11 35.7646 36.11ZM35.9246 35.19C36.3446 35.1567 36.6713 34.98 36.9046 34.66C37.138 34.3333 37.2546 33.9167 37.2546 33.41C37.2546 33.3567 37.2546 33.3067 37.2546 33.26C37.2546 33.2067 37.2513 33.1533 37.2446 33.1C37.198 32.5267 37.038 32.0767 36.7646 31.75C36.498 31.4233 36.158 31.26 35.7446 31.26C35.718 31.26 35.6946 31.2633 35.6746 31.27C35.6546 31.27 35.6313 31.27 35.6046 31.27C35.198 31.2967 34.8713 31.4733 34.6246 31.8C34.3846 32.1267 34.2646 32.5467 34.2646 33.06C34.2646 33.1067 34.2646 33.1567 34.2646 33.21C34.2646 33.2567 34.268 33.3067 34.2746 33.36C34.3213 33.9267 34.4846 34.3767 34.7646 34.71C35.0446 35.0367 35.388 35.2 35.7946 35.2C35.8146 35.2 35.8346 35.2 35.8546 35.2C35.8813 35.1933 35.9046 35.19 35.9246 35.19ZM44.2888 36.1C44.1221 35.9667 43.9921 35.84 43.8988 35.72C43.8121 35.5933 43.7388 35.4433 43.6788 35.27C43.4721 35.5833 43.2155 35.8033 42.9088 35.93C42.6088 36.05 42.2955 36.11 41.9688 36.11C41.4755 36.11 41.0355 36.0033 40.6488 35.79C40.2688 35.57 39.9688 35.2467 39.7488 34.82C39.5288 34.3867 39.4188 33.8567 39.4188 33.23C39.4188 32.5967 39.5355 32.0667 39.7688 31.64C40.0021 31.2067 40.3088 30.88 40.6888 30.66C41.0755 30.44 41.4955 30.33 41.9488 30.33C42.3021 30.33 42.5988 30.3767 42.8388 30.47C43.0788 30.5633 43.2821 30.7267 43.4488 30.96V28L44.8688 28.2L44.6688 34.36C44.6621 34.62 44.7088 34.8767 44.8088 35.13C44.9155 35.3833 45.0621 35.6033 45.2488 35.79L44.2888 36.1ZM43.4888 32.11C43.3821 31.8967 43.2255 31.71 43.0188 31.55C42.8121 31.3833 42.5621 31.3 42.2688 31.3C42.0155 31.3 41.7688 31.3633 41.5288 31.49C41.2888 31.61 41.0888 31.8133 40.9288 32.1C40.7755 32.38 40.6988 32.76 40.6988 33.24C40.6988 33.7133 40.7721 34.09 40.9188 34.37C41.0721 34.6433 41.2688 34.84 41.5088 34.96C41.7555 35.08 42.0121 35.14 42.2788 35.14C42.5055 35.14 42.7088 35.0833 42.8888 34.97C43.0688 34.85 43.2121 34.69 43.3188 34.49C43.4321 34.29 43.4888 34.0733 43.4888 33.84V32.11ZM50.3913 36.1C50.2246 35.9667 50.0946 35.84 50.0013 35.72C49.9146 35.5933 49.8413 35.4433 49.7813 35.27C49.6613 35.4767 49.4913 35.6433 49.2713 35.77C49.0513 35.89 48.8046 35.9767 48.5313 36.03C48.2646 36.0833 47.9913 36.11 47.7113 36.11C47.1446 36.11 46.718 35.98 46.4313 35.72C46.1446 35.46 45.9946 35.0967 45.9813 34.63V34.59C45.9813 34.0567 46.1513 33.6367 46.4913 33.33C46.8313 33.0233 47.3046 32.8033 47.9113 32.67C48.3246 32.5767 48.6713 32.4767 48.9513 32.37C49.238 32.2567 49.3813 32.13 49.3813 31.99C49.3813 31.5433 49.0313 31.32 48.3313 31.32C47.978 31.32 47.6346 31.39 47.3013 31.53C46.968 31.6633 46.6946 31.8233 46.4813 32.01L46.0813 31.29C46.3146 30.9833 46.6346 30.7467 47.0413 30.58C47.4546 30.4133 47.9213 30.33 48.4413 30.33C49.2146 30.33 49.7946 30.4733 50.1813 30.76C50.5746 31.04 50.7713 31.4833 50.7713 32.09V34.36C50.7713 34.62 50.8213 34.8767 50.9213 35.13C51.0213 35.3833 51.1646 35.6033 51.3513 35.79L50.3913 36.1ZM47.3613 34.49C47.368 34.67 47.4213 34.8233 47.5213 34.95C47.6213 35.0767 47.7713 35.14 47.9713 35.14C48.2646 35.14 48.5513 35.0567 48.8313 34.89C49.1113 34.7233 49.3046 34.5133 49.4113 34.26C49.4446 34.1867 49.4646 34.0967 49.4713 33.99C49.4846 33.8767 49.4913 33.76 49.4913 33.64C49.4913 33.4667 49.4846 33.31 49.4713 33.17C49.458 33.03 49.4513 32.96 49.4513 32.96C49.3046 33.0733 49.1146 33.17 48.8813 33.25C48.6546 33.33 48.4146 33.4067 48.1613 33.48C47.9146 33.5467 47.718 33.6567 47.5713 33.81C47.4313 33.9633 47.3613 34.1667 47.3613 34.42V34.49ZM52.3769 36.13V28L53.8269 28.2L53.6269 36L52.3769 36.13Z" fill="#373C46"/>
</svg>
